<svg xmlns="http://www.w3.org/2000/svg" version="1.1" xmlns:xlink="http://www.w3.org/1999/xlink" xmlns:svgjs="http://svgjs.dev/svgjs" viewBox="0 0 7.602396516835833 3.3016349171788217"><g transform="matrix(1,0,0,1,1.5102131509960421,1.3008174585894108)"><rect width="7.602396516835833" height="7.602396516835833" x="-1.5102131509960421" y="-3.4511982584179166" fill="#ffffff"></rect><g transform="matrix(1,0,0,1,0,0)"><g clip-path="url(#SvgjsClipPath1001)"><path d=" M -0.10751655392530457 -0.8906043075933688 L 4.689486768769055 -0.8906043075933688 C 5.237620290287729 -0.8906043075933688 5.68197021484375 -0.44625438303734755 5.68197021484375 0.10187913848132624 L 5.68197021484375 0.5981208615186738 C 5.68197021484375 1.146254383037348 5.237620290287729 1.590604307593369 4.689486768769055 1.590604307593369 L -0.10751655392530457 1.590604307593369 C -0.6556500754439784 1.590604307593369 -1.0999999999999996 1.146254383037348 -1.0999999999999996 0.5981208615186738 L -1.0999999999999996 0.10187913848132624 C -1.0999999999999996 -0.44625438303734755 -0.6556500754439784 -0.8906043075933688 -0.10751655392530457 -0.8906043075933688 Z" fill="#c84449" transform="matrix(1,0,0,1,0,0)" fill-rule="nonzero"></path></g></g><g transform="matrix(1,0,0,1,0,0)"><path d=" M 0.19 0.10299999999999998 C 0.217 0.09499999999999997 0.28700000000000003 0.08299999999999996 0.34600000000000003 0.08299999999999996 C 0.4 0.08299999999999996 0.443 0.09199999999999997 0.468 0.10499999999999998 C 0.504 0.123 0.582 0.17899999999999994 0.582 0.24299999999999994 C 0.582 0.36499999999999994 0.49 0.6429999999999999 0.354 0.6429999999999999 C 0.324 0.6429999999999999 0.277 0.608 0.252 0.589 C 0.276 0.51 0.332 0.2839999999999999 0.35000000000000003 0.23399999999999993 C 0.36 0.20699999999999996 0.384 0.16899999999999993 0.384 0.16099999999999992 C 0.384 0.1479999999999999 0.316 0.10799999999999998 0.296 0.10799999999999998 C 0.28500000000000003 0.10799999999999998 0.245 0.16699999999999993 0.23600000000000002 0.20099999999999996 C 0.22 0.25899999999999995 0.14400000000000002 0.5479999999999999 0.133 0.579 C 0.123 0.609 0.074 0.6479999999999999 0.074 0.6559999999999999 C 0.074 0.6719999999999999 0.134 0.71 0.155 0.71 C 0.169 0.71 0.195 0.6859999999999999 0.216 0.6589999999999999 C 0.253 0.6769999999999999 0.327 0.71 0.388 0.71 C 0.555 0.71 0.6980000000000001 0.42899999999999994 0.6980000000000001 0.27299999999999996 C 0.6980000000000001 0.15599999999999992 0.5640000000000001 0.03599999999999992 0.464 0.008999999999999897 C 0.434 0.0009999999999998899 0.394 -1.1102230246251565e-16 0.34500000000000003 -1.1102230246251565e-16 C 0.291 -1.1102230246251565e-16 0.215 0.007999999999999896 0.19 0.015999999999999903 C 0.114 0.038999999999999924 0 0.15999999999999992 0 0.21499999999999997 C 0 0.24999999999999994 0.076 0.3499999999999999 0.096 0.3499999999999999 C 0.112 0.3499999999999999 0.15 0.32499999999999996 0.15 0.31099999999999994 C 0.15 0.29699999999999993 0.113 0.22399999999999992 0.113 0.20099999999999996 C 0.113 0.17499999999999993 0.161 0.11099999999999999 0.19 0.10299999999999998 M 0.9839467773437501 0.3489999999999999 C 0.9839467773437501 0.37699999999999995 0.9529467773437501 0.49799999999999994 0.9329467773437501 0.5399999999999999 C 0.9049467773437501 0.598 0.8549467773437501 0.633 0.8349467773437501 0.633 C 0.8179467773437501 0.633 0.7999467773437501 0.616 0.7999467773437501 0.593 C 0.7999467773437501 0.5049999999999999 0.8799467773437502 0.31999999999999995 0.9299467773437501 0.31999999999999995 C 0.9459467773437501 0.31999999999999995 0.9839467773437501 0.33299999999999996 0.9839467773437501 0.3489999999999999 M 1.2019467773437502 0.474 C 1.15294677734375 0.564 1.09894677734375 0.6409999999999999 1.0689467773437502 0.6409999999999999 C 1.05994677734375 0.6409999999999999 1.04194677734375 0.626 1.04194677734375 0.613 C 1.04194677734375 0.5329999999999999 1.1099467773437501 0.36699999999999994 1.1099467773437501 0.33199999999999996 C 1.1099467773437501 0.30699999999999994 1.04994677734375 0.29999999999999993 1.02394677734375 0.29999999999999993 C 1.02394677734375 0.29999999999999993 0.9729467773437501 0.23999999999999994 0.89294677734375 0.23999999999999994 C 0.8019467773437501 0.23999999999999994 0.6829467773437501 0.46099999999999997 0.6829467773437501 0.593 C 0.6829467773437501 0.6469999999999999 0.7659467773437502 0.71 0.8119467773437501 0.71 C 0.8629467773437501 0.71 0.9229467773437501 0.6439999999999999 0.9229467773437501 0.6439999999999999 C 0.9309467773437501 0.6719999999999999 1.01394677734375 0.71 1.0589467773437502 0.71 C 1.13094677734375 0.71 1.1899467773437502 0.619 1.2449467773437501 0.5189999999999999 C 1.2449467773437501 0.5189999999999999 1.2579467773437503 0.49599999999999994 1.2579467773437503 0.484 C 1.2579467773437503 0.472 1.2369467773437501 0.45599999999999996 1.22394677734375 0.45599999999999996 C 1.2109467773437501 0.45599999999999996 1.2019467773437502 0.474 1.2019467773437502 0.474 M 1.3739653320312502 0.19499999999999995 C 1.4059653320312502 0.19499999999999995 1.4299653320312502 0.1299999999999999 1.4299653320312502 0.09199999999999997 C 1.4299653320312502 0.06699999999999995 1.3859653320312502 0.04999999999999993 1.3609653320312503 0.04999999999999993 C 1.3279653320312503 0.04999999999999993 1.3049653320312502 0.11499999999999999 1.3049653320312502 0.1529999999999999 C 1.3049653320312502 0.17799999999999994 1.3489653320312502 0.19499999999999995 1.3739653320312502 0.19499999999999995 M 1.1689653320312503 0.623 C 1.1689653320312503 0.6679999999999999 1.2589653320312502 0.71 1.3039653320312503 0.71 C 1.3759653320312502 0.71 1.4359653320312502 0.619 1.4899653320312503 0.5189999999999999 C 1.4899653320312503 0.5189999999999999 1.5039653320312503 0.49599999999999994 1.5039653320312503 0.484 C 1.5039653320312503 0.472 1.4829653320312501 0.45599999999999996 1.4699653320312502 0.45599999999999996 C 1.4569653320312503 0.45599999999999996 1.4489653320312503 0.474 1.4489653320312503 0.474 C 1.3979653320312502 0.564 1.3439653320312503 0.6409999999999999 1.3149653320312502 0.6409999999999999 C 1.3049653320312502 0.6409999999999999 1.2889653320312502 0.626 1.2889653320312502 0.613 C 1.2889653320312502 0.5429999999999999 1.3699653320312501 0.31799999999999995 1.3699653320312501 0.29499999999999993 C 1.3699653320312501 0.27599999999999997 1.3019653320312503 0.23999999999999994 1.2899653320312503 0.23999999999999994 C 1.2749653320312502 0.23999999999999994 1.2609653320312502 0.24699999999999994 1.2569653320312502 0.26099999999999995 C 1.2399653320312503 0.32299999999999995 1.1689653320312503 0.576 1.1689653320312503 0.623 M 1.7439746093750002 0.5189999999999999 C 1.7439746093750002 0.5189999999999999 1.7569746093750003 0.49599999999999994 1.7569746093750003 0.484 C 1.7569746093750003 0.472 1.7359746093750004 0.45599999999999996 1.7229746093750002 0.45599999999999996 C 1.7099746093750001 0.45599999999999996 1.7009746093750002 0.474 1.7009746093750002 0.474 C 1.6519746093750003 0.564 1.5979746093750002 0.6409999999999999 1.5679746093750002 0.6409999999999999 C 1.5589746093750003 0.6409999999999999 1.5309746093750003 0.626 1.5309746093750003 0.613 C 1.5309746093750003 0.566 1.6519746093750003 0.16099999999999992 1.6619746093750003 0.1289999999999999 C 1.6639746093750003 0.121 1.6659746093750003 0.11199999999999999 1.6659746093750003 0.10399999999999998 C 1.6659746093750003 0.08699999999999997 1.5989746093750001 0.04999999999999993 1.5799746093750002 0.04999999999999993 C 1.5719746093750002 0.04999999999999993 1.5639746093750002 0.05599999999999994 1.5589746093750003 0.07099999999999995 C 1.5269746093750003 0.16899999999999993 1.4129746093750002 0.569 1.4129746093750002 0.623 C 1.4129746093750002 0.6679999999999999 1.5129746093750003 0.71 1.5579746093750002 0.71 C 1.6299746093750003 0.71 1.689974609375 0.619 1.7439746093750002 0.5189999999999999 M 1.6889887695312502 0.9129999999999999 C 1.6889887695312502 0.947 1.7639887695312502 1.01 1.8169887695312503 1.01 C 1.8559887695312502 1.01 1.9129887695312502 0.992 1.9299887695312503 0.959 C 1.9389887695312502 0.94 1.9589887695312502 0.873 1.9809887695312502 0.7899999999999999 C 2.0289887695312503 0.7979999999999999 2.0449887695312503 0.823 2.0609887695312503 0.823 C 2.07598876953125 0.823 2.09898876953125 0.7949999999999999 2.09898876953125 0.7779999999999999 C 2.09898876953125 0.7649999999999999 2.05498876953125 0.742 1.9949887695312503 0.737 C 2.0079887695312504 0.689 2.0199887695312504 0.639 2.0319887695312504 0.592 C 2.06998876953125 0.43499999999999994 2.09498876953125 0.34199999999999997 2.1019887695312502 0.31699999999999995 C 2.1039887695312505 0.31099999999999994 2.1059887695312502 0.29999999999999993 2.1059887695312502 0.2929999999999999 C 2.1059887695312502 0.27499999999999997 2.0399887695312504 0.23999999999999994 2.0209887695312503 0.23999999999999994 C 2.0119887695312504 0.23999999999999994 2.00298876953125 0.24499999999999994 1.9989887695312503 0.25899999999999995 C 1.9869887695312503 0.29999999999999993 1.9599887695312503 0.43799999999999994 1.9289887695312502 0.5109999999999999 C 1.9159887695312503 0.5419999999999999 1.8559887695312502 0.631 1.8159887695312502 0.631 C 1.8069887695312503 0.631 1.7889887695312503 0.616 1.7889887695312503 0.603 C 1.7889887695312503 0.5609999999999999 1.8539887695312502 0.34199999999999997 1.8599887695312503 0.31699999999999995 C 1.8619887695312503 0.31099999999999994 1.8639887695312503 0.29999999999999993 1.8639887695312503 0.2929999999999999 C 1.8639887695312503 0.27499999999999997 1.7979887695312502 0.23999999999999994 1.7789887695312503 0.23999999999999994 C 1.7699887695312502 0.23999999999999994 1.7619887695312502 0.24499999999999994 1.7569887695312503 0.25899999999999995 C 1.7339887695312501 0.32099999999999995 1.6689887695312502 0.566 1.6689887695312502 0.613 C 1.6689887695312502 0.6549999999999999 1.7469887695312503 0.71 1.7989887695312503 0.71 C 1.8369887695312501 0.71 1.8809887695312502 0.6659999999999999 1.9189887695312502 0.622 C 1.9189887695312502 0.622 1.9019887695312503 0.6839999999999999 1.8829887695312502 0.749 C 1.7869887695312503 0.7759999999999999 1.6889887695312502 0.842 1.6889887695312502 0.9129999999999999 M 1.8339887695312502 0.8979999999999999 C 1.8239887695312502 0.9189999999999999 1.7929887695312503 0.9319999999999999 1.7779887695312502 0.9319999999999999 C 1.7649887695312503 0.9319999999999999 1.7519887695312502 0.9169999999999999 1.7519887695312502 0.905 C 1.7519887695312502 0.871 1.8019887695312502 0.827 1.8659887695312503 0.8029999999999999 C 1.8529887695312501 0.845 1.8409887695312501 0.8819999999999999 1.8339887695312502 0.8979999999999999 M 2.64195703125 -1.1102230246251565e-16 C 2.59795703125 -1.1102230246251565e-16 2.48895703125 0.07499999999999996 2.42695703125 0.119 C 2.40495703125 0.1349999999999999 2.35595703125 0.21799999999999997 2.35595703125 0.24399999999999994 C 2.35595703125 0.26899999999999996 2.42195703125 0.36699999999999994 2.44195703125 0.36699999999999994 C 2.45795703125 0.36699999999999994 2.49595703125 0.344 2.49595703125 0.32999999999999996 C 2.49595703125 0.31599999999999995 2.47095703125 0.24799999999999994 2.47095703125 0.22499999999999992 C 2.47095703125 0.21599999999999997 2.48195703125 0.18799999999999994 2.4869570312500002 0.18299999999999994 C 2.54195703125 0.1279999999999999 2.60795703125 0.06599999999999995 2.62495703125 0.06599999999999995 C 2.63895703125 0.06599999999999995 2.65195703125 0.08299999999999996 2.65195703125 0.09599999999999997 C 2.65195703125 0.1469999999999999 2.51295703125 0.5579999999999999 2.51295703125 0.6659999999999999 C 2.51295703125 0.694 2.59295703125 0.71 2.61095703125 0.71 C 2.62495703125 0.71 2.62895703125 0.702 2.62895703125 0.691 C 2.62895703125 0.604 2.69795703125 0.36799999999999994 2.74195703125 0.22499999999999992 C 2.75795703125 0.17399999999999993 2.88095703125 0.08199999999999996 2.91895703125 0.08199999999999996 C 2.94395703125 0.08199999999999996 2.96395703125 0.11399999999999999 2.96395703125 0.1309999999999999 C 2.96395703125 0.16399999999999992 2.84295703125 0.5449999999999999 2.84295703125 0.615 C 2.84295703125 0.6489999999999999 2.90095703125 0.71 2.91195703125 0.71 C 2.92895703125 0.71 2.99295703125 0.6649999999999999 2.99295703125 0.6499999999999999 C 2.99295703125 0.6409999999999999 2.96295703125 0.612 2.96295703125 0.599 C 2.96295703125 0.5449999999999999 3.08795703125 0.15899999999999992 3.08795703125 0.10499999999999998 C 3.08795703125 0.06099999999999994 2.9949570312500002 -1.1102230246251565e-16 2.94095703125 -1.1102230246251565e-16 C 2.88995703125 -1.1102230246251565e-16 2.80595703125 0.06899999999999995 2.77095703125 0.10099999999999998 C 2.76995703125 0.05999999999999994 2.68395703125 -1.1102230246251565e-16 2.64195703125 -1.1102230246251565e-16 M 3.20095166015625 0.484 C 3.20995166015625 0.43699999999999994 3.26895166015625 0.31799999999999995 3.30795166015625 0.31799999999999995 C 3.32195166015625 0.31799999999999995 3.33795166015625 0.32899999999999996 3.33795166015625 0.34299999999999997 C 3.33795166015625 0.36999999999999994 3.29695166015625 0.484 3.20095166015625 0.484 M 3.06795166015625 0.567 C 3.06795166015625 0.6449999999999999 3.18895166015625 0.71 3.27695166015625 0.71 C 3.35795166015625 0.71 3.44495166015625 0.6479999999999999 3.51295166015625 0.5189999999999999 C 3.51295166015625 0.5189999999999999 3.52495166015625 0.49599999999999994 3.52495166015625 0.484 C 3.52495166015625 0.472 3.50395166015625 0.45599999999999996 3.49095166015625 0.45599999999999996 C 3.47795166015625 0.45599999999999996 3.46995166015625 0.474 3.46995166015625 0.474 C 3.40495166015625 0.602 3.32595166015625 0.639 3.27195166015625 0.639 C 3.22895166015625 0.639 3.18595166015625 0.602 3.18595166015625 0.578 C 3.18595166015625 0.5459999999999999 3.19395166015625 0.5289999999999999 3.19395166015625 0.5289999999999999 C 3.19395166015625 0.5289999999999999 3.24295166015625 0.5429999999999999 3.28795166015625 0.5429999999999999 C 3.35295166015625 0.5429999999999999 3.41695166015625 0.38299999999999995 3.41695166015625 0.33299999999999996 C 3.41695166015625 0.2899999999999999 3.32495166015625 0.23999999999999994 3.27395166015625 0.23999999999999994 C 3.18095166015625 0.23999999999999994 3.06795166015625 0.45399999999999996 3.06795166015625 0.567 M 3.879970703125 0.31699999999999995 C 3.881970703125 0.31099999999999994 3.883970703125 0.29999999999999993 3.883970703125 0.2929999999999999 C 3.883970703125 0.27499999999999997 3.817970703125 0.23999999999999994 3.797970703125 0.23999999999999994 C 3.789970703125 0.23999999999999994 3.781970703125 0.24599999999999994 3.777970703125 0.26099999999999995 C 3.7579707031250003 0.32499999999999996 3.7259707031250002 0.44899999999999995 3.692970703125 0.5389999999999999 C 3.679970703125 0.577 3.614970703125 0.631 3.590970703125 0.631 C 3.575970703125 0.631 3.555970703125 0.614 3.555970703125 0.599 C 3.555970703125 0.57 3.618970703125 0.348 3.627970703125 0.31699999999999995 C 3.629970703125 0.31099999999999994 3.631970703125 0.29999999999999993 3.631970703125 0.2929999999999999 C 3.631970703125 0.27499999999999997 3.565970703125 0.23999999999999994 3.546970703125 0.23999999999999994 C 3.537970703125 0.23999999999999994 3.530970703125 0.24499999999999994 3.524970703125 0.25899999999999995 C 3.503970703125 0.32499999999999996 3.437970703125 0.5609999999999999 3.437970703125 0.613 C 3.437970703125 0.6569999999999999 3.515970703125 0.71 3.565970703125 0.71 C 3.612970703125 0.71 3.696970703125 0.6359999999999999 3.696970703125 0.6359999999999999 C 3.702970703125 0.6689999999999999 3.773970703125 0.71 3.846970703125 0.71 C 3.892970703125 0.71 3.934970703125 0.6829999999999999 3.972970703125 0.6409999999999999 C 4.005970703125 0.6469999999999999 4.039970703125 0.6489999999999999 4.060970703125 0.6489999999999999 C 4.149970703125 0.6489999999999999 4.221970703125 0.5189999999999999 4.221970703125 0.5189999999999999 C 4.221970703125 0.5189999999999999 4.235970703125 0.49599999999999994 4.235970703125 0.484 C 4.235970703125 0.472 4.214970703125 0.45599999999999996 4.200970703125 0.45599999999999996 C 4.188970703125 0.45599999999999996 4.178970703125 0.474 4.178970703125 0.474 C 4.178970703125 0.474 4.124970703125 0.583 4.057970703125 0.583 C 4.044970703125 0.583 4.033970703125 0.579 4.022970703125 0.574 C 4.086970703125 0.472 4.126970703125 0.34199999999999997 4.126970703125 0.29699999999999993 C 4.126970703125 0.26999999999999996 4.059970703125 0.23999999999999994 4.041970703125 0.23999999999999994 C 4.024970703125 0.23999999999999994 4.018970703125 0.24699999999999994 4.017970703125 0.26199999999999996 C 4.014970703125 0.31799999999999995 3.977970703125 0.43799999999999994 3.935970703125 0.5269999999999999 L 3.934970703125 0.5269999999999999 C 3.912970703125 0.5269999999999999 3.867970703125 0.571 3.867970703125 0.592 C 3.867970703125 0.6 3.873970703125 0.608 3.883970703125 0.614 C 3.871970703125 0.6279999999999999 3.859970703125 0.6359999999999999 3.849970703125 0.6359999999999999 C 3.834970703125 0.6359999999999999 3.808970703125 0.622 3.808970703125 0.603 C 3.808970703125 0.5569999999999999 3.872970703125 0.348 3.879970703125 0.31699999999999995 M 4.333955078125 0.36699999999999994 C 4.333955078125 0.42099999999999993 4.356955078125 0.49599999999999994 4.356955078125 0.568 C 4.356955078125 0.604 4.330955078125 0.639 4.296955078125 0.639 C 4.269955078125 0.639 4.237955078125 0.587 4.237955078125 0.5369999999999999 C 4.237955078125 0.504 4.333955078125 0.36699999999999994 4.333955078125 0.36699999999999994 M 4.442955078125 0.624 C 4.442955078125 0.624 4.473955078125 0.581 4.473955078125 0.5429999999999999 C 4.473955078125 0.46799999999999997 4.435955078125 0.38099999999999995 4.435955078125 0.2839999999999999 C 4.435955078125 0.26599999999999996 4.375955078125 0.22699999999999992 4.362955078125 0.22699999999999992 C 4.348955078125 0.22699999999999992 4.336955078125 0.23899999999999993 4.330955078125 0.24999999999999994 C 4.296955078125 0.30599999999999994 4.200955078125 0.45299999999999996 4.200955078125 0.45299999999999996 C 4.200955078125 0.45299999999999996 4.117955078125 0.49199999999999994 4.117955078125 0.5409999999999999 C 4.117955078125 0.603 4.222955078125 0.71 4.322955078125 0.71 C 4.472955078125 0.71 4.569955078125 0.619 4.624955078125 0.5189999999999999 C 4.624955078125 0.5189999999999999 4.637955078125 0.49599999999999994 4.637955078125 0.484 C 4.637955078125 0.472 4.616955078125 0.45599999999999996 4.603955078125 0.45599999999999996 C 4.590955078125 0.45599999999999996 4.5819550781250005 0.474 4.5819550781250005 0.474 C 4.532955078125 0.564 4.485955078125 0.604 4.442955078125 0.624" fill="#ffffff" fill-rule="nonzero"></path></g><g transform="matrix(1,0,0,1,0,0)"></g></g><defs><clipPath id="SvgjsClipPath1001"><path d=" M -1.0999999999999996 -0.8906043075933688 h 6.781970214843749 v 2.4812086151867376 h -6.781970214843749 Z"></path></clipPath></defs></svg>